# xmcd
# Track frame offsets:
# 150
# 11003
# 22005
# 34698
# 47503
# 57970
# 70743
# 84360
# 96333
# 109918
# 121303
# 134385
# 144265
# 161208
# 175880
# 189085
# 201518
# 215985
# 226298
# 239988
#
# Disc length: 3454 seconds
# Revision: 0
# Processed by: cddbd v1.4PL0 Copyright (c) Steve Scherf et al.
# Submitted via: VisiTrax 2.9.5.180 - For more info visit www.synapsa.com
#
DISCID=240d7c14
DTITLE=Billy Walker - 20 Golden country hits
DYEAR=1992
DGENRE=
TTITLE0=Charlie's shoes
TTITLE1=When a man loves a woman
TTITLE2=Sing me a love song to baby
TTITLE3=She goes walking through my mind
TTITLE4=Smokey places
TTITLE5=Circumstances
TTITLE6=Funny how times slips away
TTITLE7=Word games
TTITLE8=Cross the Brazos at Waco
TTITLE9=Anything our heart desires
TTITLE10=Down to my last cigarette
TTITLE11=Missing you
TTITLE12=Coffee brown eyes
TTITLE13=Tennessee waltz
TTITLE14=Singing those lovesick blues
TTITLE15=He sang the songs about El Paso
TTITLE16=Behind closed doors
TTITLE17=Thank you for calling
TTITLE18=Heartache in high heel shoes
TTITLE19=You gave me a mountain
EXTD=
EXTT0=
EXTT1=
EXTT2=
EXTT3=
EXTT4=
EXTT5=
EXTT6=
EXTT7=
EXTT8=
EXTT9=
EXTT10=
EXTT11=
EXTT12=
EXTT13=
EXTT14=
EXTT15=
EXTT16=
EXTT17=
EXTT18=
EXTT19=
PLAYORDER=
